; NON-PLATED HOLES START AT T1
; THROUGH (PLATED) HOLES START AT T100
M48
INCH
T1C0.055000
T100C0.098425
T101C0.032000
T102C0.015748
T103C0.031496
T104C0.035000
T105C0.038000
T106C0.031555
T107C0.036299
T108C0.036220
%
T1
X000825Y005334
X000825Y007105
T100
X000826Y003917
X000826Y008523
T101
X006753Y000855
X007503Y001355
X006753Y001855
T102
X004753Y002480
X005503Y003730
X004503Y003829
X004503Y003230
T103
X006253Y010843
T104
X003003Y003230
X006003Y006230
X003012Y002252
X003003Y004230
X006003Y007230
X003012Y000480
X003003Y005230
X006003Y008230
X000453Y002252
X003003Y006230
X006003Y009230
X000453Y000480
X006003Y003230
X003003Y007230
X006003Y004230
X003003Y008230
X006003Y005230
X003003Y009230
T105
X008253Y007730
X008253Y005730
X008253Y003730
X008253Y008730
X008253Y006730
X008253Y004730
X008253Y009730
X008253Y002730
T106
X004322Y010842
T107
X001653Y004842
X001653Y007598
T108
X001653Y005827
X001653Y006614
X001653Y005822
T00
M30
