G04 MADE WITH FRITZING*
G04 WWW.FRITZING.ORG*
G04 DOUBLE SIDED*
G04 HOLES PLATED*
G04 CONTOUR ON CENTER OF CONTOUR VECTOR*
%ASAXBY*%
%FSLAX23Y23*%
%MOIN*%
%OFA0B0*%
%SFA1.0B1.0*%
%ADD10C,0.075000*%
%ADD11C,0.039370*%
%ADD12C,0.073701*%
%ADD13C,0.067716*%
%ADD14C,0.118425*%
%ADD15C,0.074000*%
%ADD16C,0.078000*%
%ADD17C,0.070925*%
%ADD18C,0.070866*%
%ADD19R,0.075000X0.075000*%
%ADD20C,0.012000*%
%ADD21C,0.024000*%
%ADD22R,0.001000X0.001000*%
%LNCOPPER0*%
G90*
G70*
G54D10*
X744Y1105D03*
X462Y792D03*
X150Y247D03*
X301Y48D03*
X45Y48D03*
X301Y225D03*
X45Y225D03*
G54D11*
X450Y323D03*
X550Y373D03*
X475Y248D03*
G54D12*
X165Y760D03*
G54D13*
X165Y661D03*
X165Y582D03*
G54D12*
X165Y484D03*
G54D14*
X83Y852D03*
X83Y392D03*
G54D15*
X675Y86D03*
X750Y136D03*
X675Y186D03*
G54D11*
X450Y383D03*
G54D16*
X825Y273D03*
X825Y373D03*
X825Y473D03*
X825Y573D03*
X825Y673D03*
X825Y773D03*
X825Y873D03*
X825Y973D03*
G54D10*
X300Y923D03*
X600Y923D03*
X300Y823D03*
X600Y823D03*
X300Y723D03*
X600Y723D03*
X300Y623D03*
X600Y623D03*
X300Y523D03*
X600Y523D03*
X300Y423D03*
X600Y423D03*
X300Y323D03*
X600Y323D03*
G54D17*
X432Y1084D03*
G54D18*
X625Y1084D03*
G54D19*
X300Y923D03*
G54D20*
X401Y323D02*
X317Y407D01*
D02*
X437Y323D02*
X401Y323D01*
D02*
X538Y398D02*
X544Y385D01*
D02*
X538Y660D02*
X538Y398D01*
D02*
X584Y707D02*
X538Y660D01*
D02*
X462Y248D02*
X325Y248D01*
D02*
X325Y248D02*
X318Y241D01*
G54D21*
D02*
X200Y473D02*
X193Y475D01*
D02*
X651Y98D02*
X600Y148D01*
D02*
X600Y148D02*
X287Y148D01*
D02*
X651Y98D02*
X651Y98D01*
D02*
X225Y473D02*
X200Y473D01*
D02*
X225Y210D02*
X225Y473D01*
D02*
X287Y148D02*
X225Y210D01*
D02*
X225Y848D02*
X280Y903D01*
D02*
X225Y473D02*
X225Y848D01*
D02*
X751Y173D02*
X751Y163D01*
D02*
X751Y398D02*
X751Y173D01*
D02*
X804Y452D02*
X751Y398D01*
G54D20*
D02*
X663Y436D02*
X663Y386D01*
D02*
X663Y386D02*
X617Y339D01*
D02*
X700Y473D02*
X663Y436D01*
D02*
X701Y649D02*
X700Y473D01*
D02*
X808Y756D02*
X701Y649D01*
D02*
X688Y411D02*
X688Y310D01*
D02*
X688Y310D02*
X638Y260D01*
D02*
X338Y285D02*
X317Y307D01*
D02*
X551Y285D02*
X338Y285D01*
D02*
X575Y260D02*
X551Y285D01*
D02*
X638Y260D02*
X575Y260D01*
D02*
X725Y448D02*
X688Y411D01*
D02*
X725Y573D02*
X725Y448D01*
D02*
X808Y656D02*
X725Y573D01*
D02*
X425Y398D02*
X439Y390D01*
D02*
X317Y507D02*
X425Y398D01*
D02*
X675Y498D02*
X617Y439D01*
D02*
X675Y723D02*
X675Y498D01*
D02*
X808Y856D02*
X675Y723D01*
D02*
X675Y824D02*
X808Y956D01*
D02*
X623Y823D02*
X675Y824D01*
D02*
X425Y923D02*
X425Y1048D01*
D02*
X425Y1048D02*
X428Y1063D01*
D02*
X323Y823D02*
X326Y823D01*
D02*
X326Y823D02*
X425Y923D01*
D02*
X625Y1049D02*
X625Y1063D01*
D02*
X317Y739D02*
X625Y1049D01*
G36*
X40Y1165D02*
X40Y1131D01*
X626Y1131D01*
X626Y1129D01*
X638Y1129D01*
X638Y1127D01*
X644Y1127D01*
X644Y1125D01*
X648Y1125D01*
X648Y1123D01*
X650Y1123D01*
X650Y1121D01*
X654Y1121D01*
X654Y1119D01*
X656Y1119D01*
X656Y1117D01*
X658Y1117D01*
X658Y1115D01*
X660Y1115D01*
X660Y1113D01*
X662Y1113D01*
X662Y1109D01*
X664Y1109D01*
X664Y1107D01*
X666Y1107D01*
X666Y1103D01*
X668Y1103D01*
X668Y1097D01*
X670Y1097D01*
X670Y1073D01*
X668Y1073D01*
X668Y1067D01*
X666Y1067D01*
X666Y1063D01*
X664Y1063D01*
X664Y1059D01*
X662Y1059D01*
X662Y1057D01*
X660Y1057D01*
X660Y1055D01*
X658Y1055D01*
X658Y1053D01*
X656Y1053D01*
X656Y1051D01*
X654Y1051D01*
X654Y1049D01*
X652Y1049D01*
X652Y1047D01*
X648Y1047D01*
X648Y1045D01*
X646Y1045D01*
X646Y1043D01*
X640Y1043D01*
X640Y1041D01*
X638Y1041D01*
X638Y1039D01*
X636Y1039D01*
X636Y1035D01*
X634Y1035D01*
X634Y1033D01*
X632Y1033D01*
X632Y1031D01*
X630Y1031D01*
X630Y1029D01*
X628Y1029D01*
X628Y1027D01*
X626Y1027D01*
X626Y1025D01*
X624Y1025D01*
X624Y1023D01*
X830Y1023D01*
X830Y1021D01*
X856Y1021D01*
X856Y1165D01*
X40Y1165D01*
G37*
D02*
G36*
X40Y1131D02*
X40Y1129D01*
X444Y1129D01*
X444Y1127D01*
X450Y1127D01*
X450Y1125D01*
X454Y1125D01*
X454Y1123D01*
X458Y1123D01*
X458Y1121D01*
X460Y1121D01*
X460Y1119D01*
X462Y1119D01*
X462Y1117D01*
X464Y1117D01*
X464Y1115D01*
X466Y1115D01*
X466Y1113D01*
X468Y1113D01*
X468Y1111D01*
X470Y1111D01*
X470Y1107D01*
X472Y1107D01*
X472Y1105D01*
X474Y1105D01*
X474Y1099D01*
X476Y1099D01*
X476Y1091D01*
X478Y1091D01*
X478Y1077D01*
X476Y1077D01*
X476Y1069D01*
X474Y1069D01*
X474Y1065D01*
X472Y1065D01*
X472Y1061D01*
X470Y1061D01*
X470Y1059D01*
X468Y1059D01*
X468Y1055D01*
X466Y1055D01*
X466Y1053D01*
X464Y1053D01*
X464Y1051D01*
X462Y1051D01*
X462Y1049D01*
X458Y1049D01*
X458Y1047D01*
X456Y1047D01*
X456Y1045D01*
X452Y1045D01*
X452Y1043D01*
X448Y1043D01*
X448Y1041D01*
X442Y1041D01*
X442Y923D01*
X440Y923D01*
X440Y915D01*
X438Y915D01*
X438Y913D01*
X436Y913D01*
X436Y911D01*
X434Y911D01*
X434Y909D01*
X432Y909D01*
X432Y907D01*
X430Y907D01*
X430Y905D01*
X428Y905D01*
X428Y903D01*
X426Y903D01*
X426Y901D01*
X424Y901D01*
X424Y899D01*
X422Y899D01*
X422Y897D01*
X420Y897D01*
X420Y895D01*
X418Y895D01*
X418Y893D01*
X416Y893D01*
X416Y891D01*
X414Y891D01*
X414Y889D01*
X412Y889D01*
X412Y887D01*
X410Y887D01*
X410Y885D01*
X408Y885D01*
X408Y883D01*
X406Y883D01*
X406Y881D01*
X404Y881D01*
X404Y879D01*
X402Y879D01*
X402Y877D01*
X400Y877D01*
X400Y875D01*
X398Y875D01*
X398Y873D01*
X396Y873D01*
X396Y871D01*
X394Y871D01*
X394Y869D01*
X392Y869D01*
X392Y867D01*
X390Y867D01*
X390Y865D01*
X388Y865D01*
X388Y863D01*
X386Y863D01*
X386Y861D01*
X384Y861D01*
X384Y859D01*
X382Y859D01*
X382Y857D01*
X380Y857D01*
X380Y855D01*
X378Y855D01*
X378Y853D01*
X376Y853D01*
X376Y851D01*
X374Y851D01*
X374Y849D01*
X372Y849D01*
X372Y847D01*
X370Y847D01*
X370Y845D01*
X368Y845D01*
X368Y843D01*
X366Y843D01*
X366Y841D01*
X364Y841D01*
X364Y839D01*
X362Y839D01*
X362Y837D01*
X360Y837D01*
X360Y835D01*
X358Y835D01*
X358Y833D01*
X356Y833D01*
X356Y831D01*
X354Y831D01*
X354Y827D01*
X352Y827D01*
X352Y825D01*
X350Y825D01*
X350Y823D01*
X348Y823D01*
X348Y815D01*
X346Y815D01*
X346Y811D01*
X366Y811D01*
X366Y813D01*
X368Y813D01*
X368Y815D01*
X370Y815D01*
X370Y817D01*
X372Y817D01*
X372Y819D01*
X374Y819D01*
X374Y821D01*
X376Y821D01*
X376Y823D01*
X378Y823D01*
X378Y825D01*
X380Y825D01*
X380Y827D01*
X382Y827D01*
X382Y829D01*
X384Y829D01*
X384Y831D01*
X386Y831D01*
X386Y833D01*
X388Y833D01*
X388Y835D01*
X390Y835D01*
X390Y837D01*
X392Y837D01*
X392Y839D01*
X394Y839D01*
X394Y841D01*
X396Y841D01*
X396Y843D01*
X398Y843D01*
X398Y845D01*
X400Y845D01*
X400Y847D01*
X402Y847D01*
X402Y849D01*
X404Y849D01*
X404Y851D01*
X406Y851D01*
X406Y853D01*
X408Y853D01*
X408Y855D01*
X410Y855D01*
X410Y857D01*
X412Y857D01*
X412Y859D01*
X414Y859D01*
X414Y861D01*
X416Y861D01*
X416Y863D01*
X418Y863D01*
X418Y865D01*
X420Y865D01*
X420Y867D01*
X422Y867D01*
X422Y869D01*
X424Y869D01*
X424Y871D01*
X426Y871D01*
X426Y873D01*
X428Y873D01*
X428Y875D01*
X430Y875D01*
X430Y877D01*
X432Y877D01*
X432Y879D01*
X434Y879D01*
X434Y881D01*
X436Y881D01*
X436Y883D01*
X438Y883D01*
X438Y885D01*
X440Y885D01*
X440Y887D01*
X442Y887D01*
X442Y889D01*
X444Y889D01*
X444Y891D01*
X446Y891D01*
X446Y893D01*
X448Y893D01*
X448Y895D01*
X450Y895D01*
X450Y897D01*
X452Y897D01*
X452Y899D01*
X454Y899D01*
X454Y901D01*
X456Y901D01*
X456Y903D01*
X458Y903D01*
X458Y905D01*
X460Y905D01*
X460Y907D01*
X462Y907D01*
X462Y909D01*
X464Y909D01*
X464Y911D01*
X466Y911D01*
X466Y913D01*
X468Y913D01*
X468Y915D01*
X470Y915D01*
X470Y917D01*
X472Y917D01*
X472Y919D01*
X474Y919D01*
X474Y921D01*
X476Y921D01*
X476Y923D01*
X478Y923D01*
X478Y925D01*
X480Y925D01*
X480Y927D01*
X482Y927D01*
X482Y929D01*
X484Y929D01*
X484Y931D01*
X486Y931D01*
X486Y933D01*
X488Y933D01*
X488Y935D01*
X490Y935D01*
X490Y937D01*
X492Y937D01*
X492Y939D01*
X494Y939D01*
X494Y941D01*
X496Y941D01*
X496Y943D01*
X498Y943D01*
X498Y945D01*
X500Y945D01*
X500Y947D01*
X502Y947D01*
X502Y949D01*
X504Y949D01*
X504Y951D01*
X506Y951D01*
X506Y953D01*
X508Y953D01*
X508Y955D01*
X510Y955D01*
X510Y957D01*
X512Y957D01*
X512Y959D01*
X514Y959D01*
X514Y961D01*
X516Y961D01*
X516Y963D01*
X518Y963D01*
X518Y965D01*
X520Y965D01*
X520Y967D01*
X522Y967D01*
X522Y969D01*
X524Y969D01*
X524Y971D01*
X526Y971D01*
X526Y973D01*
X528Y973D01*
X528Y975D01*
X530Y975D01*
X530Y977D01*
X532Y977D01*
X532Y979D01*
X534Y979D01*
X534Y981D01*
X536Y981D01*
X536Y983D01*
X538Y983D01*
X538Y985D01*
X540Y985D01*
X540Y987D01*
X542Y987D01*
X542Y989D01*
X544Y989D01*
X544Y991D01*
X546Y991D01*
X546Y993D01*
X548Y993D01*
X548Y995D01*
X550Y995D01*
X550Y997D01*
X552Y997D01*
X552Y999D01*
X554Y999D01*
X554Y1001D01*
X556Y1001D01*
X556Y1003D01*
X558Y1003D01*
X558Y1005D01*
X560Y1005D01*
X560Y1007D01*
X562Y1007D01*
X562Y1009D01*
X564Y1009D01*
X564Y1011D01*
X566Y1011D01*
X566Y1013D01*
X568Y1013D01*
X568Y1015D01*
X570Y1015D01*
X570Y1017D01*
X572Y1017D01*
X572Y1019D01*
X574Y1019D01*
X574Y1021D01*
X576Y1021D01*
X576Y1023D01*
X578Y1023D01*
X578Y1025D01*
X580Y1025D01*
X580Y1027D01*
X582Y1027D01*
X582Y1029D01*
X584Y1029D01*
X584Y1031D01*
X586Y1031D01*
X586Y1033D01*
X588Y1033D01*
X588Y1035D01*
X590Y1035D01*
X590Y1057D01*
X588Y1057D01*
X588Y1061D01*
X586Y1061D01*
X586Y1065D01*
X584Y1065D01*
X584Y1069D01*
X582Y1069D01*
X582Y1075D01*
X580Y1075D01*
X580Y1093D01*
X582Y1093D01*
X582Y1101D01*
X584Y1101D01*
X584Y1105D01*
X586Y1105D01*
X586Y1109D01*
X588Y1109D01*
X588Y1111D01*
X590Y1111D01*
X590Y1113D01*
X592Y1113D01*
X592Y1117D01*
X594Y1117D01*
X594Y1119D01*
X598Y1119D01*
X598Y1121D01*
X600Y1121D01*
X600Y1123D01*
X604Y1123D01*
X604Y1125D01*
X606Y1125D01*
X606Y1127D01*
X612Y1127D01*
X612Y1129D01*
X624Y1129D01*
X624Y1131D01*
X40Y1131D01*
G37*
D02*
G36*
X40Y1129D02*
X40Y971D01*
X348Y971D01*
X348Y887D01*
X368Y887D01*
X368Y889D01*
X370Y889D01*
X370Y891D01*
X372Y891D01*
X372Y893D01*
X374Y893D01*
X374Y895D01*
X376Y895D01*
X376Y897D01*
X378Y897D01*
X378Y899D01*
X380Y899D01*
X380Y901D01*
X382Y901D01*
X382Y903D01*
X384Y903D01*
X384Y905D01*
X386Y905D01*
X386Y907D01*
X388Y907D01*
X388Y909D01*
X390Y909D01*
X390Y911D01*
X392Y911D01*
X392Y913D01*
X394Y913D01*
X394Y915D01*
X396Y915D01*
X396Y917D01*
X398Y917D01*
X398Y919D01*
X400Y919D01*
X400Y923D01*
X402Y923D01*
X402Y925D01*
X404Y925D01*
X404Y927D01*
X406Y927D01*
X406Y929D01*
X408Y929D01*
X408Y931D01*
X410Y931D01*
X410Y1045D01*
X408Y1045D01*
X408Y1047D01*
X406Y1047D01*
X406Y1049D01*
X404Y1049D01*
X404Y1051D01*
X400Y1051D01*
X400Y1053D01*
X398Y1053D01*
X398Y1057D01*
X396Y1057D01*
X396Y1059D01*
X394Y1059D01*
X394Y1063D01*
X392Y1063D01*
X392Y1065D01*
X390Y1065D01*
X390Y1071D01*
X388Y1071D01*
X388Y1081D01*
X386Y1081D01*
X386Y1087D01*
X388Y1087D01*
X388Y1097D01*
X390Y1097D01*
X390Y1103D01*
X392Y1103D01*
X392Y1107D01*
X394Y1107D01*
X394Y1111D01*
X396Y1111D01*
X396Y1113D01*
X398Y1113D01*
X398Y1115D01*
X400Y1115D01*
X400Y1117D01*
X402Y1117D01*
X402Y1119D01*
X404Y1119D01*
X404Y1121D01*
X406Y1121D01*
X406Y1123D01*
X410Y1123D01*
X410Y1125D01*
X414Y1125D01*
X414Y1127D01*
X420Y1127D01*
X420Y1129D01*
X40Y1129D01*
G37*
D02*
G36*
X622Y1023D02*
X622Y1021D01*
X620Y1021D01*
X620Y1019D01*
X618Y1019D01*
X618Y1017D01*
X616Y1017D01*
X616Y1015D01*
X614Y1015D01*
X614Y1013D01*
X612Y1013D01*
X612Y1011D01*
X610Y1011D01*
X610Y1009D01*
X608Y1009D01*
X608Y1007D01*
X606Y1007D01*
X606Y1005D01*
X604Y1005D01*
X604Y1003D01*
X602Y1003D01*
X602Y1001D01*
X600Y1001D01*
X600Y999D01*
X598Y999D01*
X598Y997D01*
X596Y997D01*
X596Y995D01*
X594Y995D01*
X594Y993D01*
X592Y993D01*
X592Y991D01*
X590Y991D01*
X590Y989D01*
X588Y989D01*
X588Y971D01*
X608Y971D01*
X608Y969D01*
X616Y969D01*
X616Y967D01*
X620Y967D01*
X620Y965D01*
X624Y965D01*
X624Y963D01*
X628Y963D01*
X628Y961D01*
X630Y961D01*
X630Y959D01*
X632Y959D01*
X632Y957D01*
X634Y957D01*
X634Y955D01*
X636Y955D01*
X636Y953D01*
X638Y953D01*
X638Y951D01*
X640Y951D01*
X640Y947D01*
X642Y947D01*
X642Y943D01*
X644Y943D01*
X644Y939D01*
X646Y939D01*
X646Y931D01*
X648Y931D01*
X648Y915D01*
X646Y915D01*
X646Y907D01*
X644Y907D01*
X644Y903D01*
X642Y903D01*
X642Y899D01*
X640Y899D01*
X640Y897D01*
X638Y897D01*
X638Y893D01*
X636Y893D01*
X636Y891D01*
X634Y891D01*
X634Y889D01*
X632Y889D01*
X632Y887D01*
X630Y887D01*
X630Y885D01*
X626Y885D01*
X626Y883D01*
X624Y883D01*
X624Y863D01*
X628Y863D01*
X628Y861D01*
X630Y861D01*
X630Y859D01*
X632Y859D01*
X632Y857D01*
X634Y857D01*
X634Y855D01*
X636Y855D01*
X636Y853D01*
X638Y853D01*
X638Y851D01*
X640Y851D01*
X640Y847D01*
X642Y847D01*
X642Y843D01*
X644Y843D01*
X644Y839D01*
X668Y839D01*
X668Y841D01*
X670Y841D01*
X670Y843D01*
X672Y843D01*
X672Y845D01*
X674Y845D01*
X674Y847D01*
X676Y847D01*
X676Y849D01*
X678Y849D01*
X678Y851D01*
X680Y851D01*
X680Y853D01*
X682Y853D01*
X682Y855D01*
X684Y855D01*
X684Y857D01*
X686Y857D01*
X686Y859D01*
X688Y859D01*
X688Y861D01*
X690Y861D01*
X690Y863D01*
X692Y863D01*
X692Y865D01*
X694Y865D01*
X694Y867D01*
X696Y867D01*
X696Y869D01*
X698Y869D01*
X698Y871D01*
X700Y871D01*
X700Y873D01*
X702Y873D01*
X702Y875D01*
X704Y875D01*
X704Y877D01*
X706Y877D01*
X706Y879D01*
X708Y879D01*
X708Y881D01*
X710Y881D01*
X710Y883D01*
X712Y883D01*
X712Y885D01*
X714Y885D01*
X714Y887D01*
X716Y887D01*
X716Y889D01*
X718Y889D01*
X718Y891D01*
X720Y891D01*
X720Y893D01*
X722Y893D01*
X722Y895D01*
X724Y895D01*
X724Y897D01*
X726Y897D01*
X726Y899D01*
X728Y899D01*
X728Y901D01*
X730Y901D01*
X730Y903D01*
X732Y903D01*
X732Y905D01*
X734Y905D01*
X734Y907D01*
X736Y907D01*
X736Y909D01*
X738Y909D01*
X738Y911D01*
X740Y911D01*
X740Y913D01*
X742Y913D01*
X742Y915D01*
X744Y915D01*
X744Y917D01*
X746Y917D01*
X746Y919D01*
X748Y919D01*
X748Y921D01*
X750Y921D01*
X750Y923D01*
X752Y923D01*
X752Y925D01*
X754Y925D01*
X754Y927D01*
X756Y927D01*
X756Y929D01*
X758Y929D01*
X758Y931D01*
X760Y931D01*
X760Y933D01*
X762Y933D01*
X762Y935D01*
X766Y935D01*
X766Y937D01*
X768Y937D01*
X768Y939D01*
X770Y939D01*
X770Y941D01*
X772Y941D01*
X772Y943D01*
X774Y943D01*
X774Y945D01*
X776Y945D01*
X776Y947D01*
X778Y947D01*
X778Y967D01*
X776Y967D01*
X776Y981D01*
X778Y981D01*
X778Y989D01*
X780Y989D01*
X780Y993D01*
X782Y993D01*
X782Y997D01*
X784Y997D01*
X784Y1001D01*
X786Y1001D01*
X786Y1003D01*
X788Y1003D01*
X788Y1005D01*
X790Y1005D01*
X790Y1009D01*
X794Y1009D01*
X794Y1011D01*
X796Y1011D01*
X796Y1013D01*
X798Y1013D01*
X798Y1015D01*
X802Y1015D01*
X802Y1017D01*
X806Y1017D01*
X806Y1019D01*
X812Y1019D01*
X812Y1021D01*
X820Y1021D01*
X820Y1023D01*
X622Y1023D01*
G37*
D02*
G36*
X40Y971D02*
X40Y921D01*
X98Y921D01*
X98Y919D01*
X106Y919D01*
X106Y917D01*
X110Y917D01*
X110Y915D01*
X114Y915D01*
X114Y913D01*
X118Y913D01*
X118Y911D01*
X122Y911D01*
X122Y909D01*
X124Y909D01*
X124Y907D01*
X126Y907D01*
X126Y905D01*
X128Y905D01*
X128Y903D01*
X132Y903D01*
X132Y901D01*
X134Y901D01*
X134Y897D01*
X136Y897D01*
X136Y895D01*
X138Y895D01*
X138Y893D01*
X140Y893D01*
X140Y889D01*
X142Y889D01*
X142Y887D01*
X144Y887D01*
X144Y883D01*
X146Y883D01*
X146Y877D01*
X148Y877D01*
X148Y873D01*
X150Y873D01*
X150Y863D01*
X152Y863D01*
X152Y843D01*
X150Y843D01*
X150Y833D01*
X148Y833D01*
X148Y827D01*
X146Y827D01*
X146Y823D01*
X144Y823D01*
X144Y807D01*
X174Y807D01*
X174Y805D01*
X182Y805D01*
X182Y803D01*
X202Y803D01*
X202Y851D01*
X204Y851D01*
X204Y857D01*
X206Y857D01*
X206Y861D01*
X208Y861D01*
X208Y863D01*
X210Y863D01*
X210Y865D01*
X212Y865D01*
X212Y867D01*
X214Y867D01*
X214Y869D01*
X216Y869D01*
X216Y871D01*
X218Y871D01*
X218Y873D01*
X220Y873D01*
X220Y875D01*
X222Y875D01*
X222Y877D01*
X224Y877D01*
X224Y879D01*
X226Y879D01*
X226Y881D01*
X228Y881D01*
X228Y883D01*
X230Y883D01*
X230Y885D01*
X232Y885D01*
X232Y887D01*
X234Y887D01*
X234Y889D01*
X236Y889D01*
X236Y891D01*
X238Y891D01*
X238Y893D01*
X240Y893D01*
X240Y895D01*
X242Y895D01*
X242Y897D01*
X244Y897D01*
X244Y899D01*
X246Y899D01*
X246Y901D01*
X248Y901D01*
X248Y903D01*
X250Y903D01*
X250Y905D01*
X252Y905D01*
X252Y971D01*
X40Y971D01*
G37*
D02*
G36*
X40Y921D02*
X40Y917D01*
X60Y917D01*
X60Y919D01*
X68Y919D01*
X68Y921D01*
X40Y921D01*
G37*
D02*
G36*
X534Y935D02*
X534Y933D01*
X532Y933D01*
X532Y931D01*
X530Y931D01*
X530Y929D01*
X528Y929D01*
X528Y927D01*
X526Y927D01*
X526Y925D01*
X524Y925D01*
X524Y923D01*
X522Y923D01*
X522Y921D01*
X520Y921D01*
X520Y919D01*
X518Y919D01*
X518Y917D01*
X516Y917D01*
X516Y915D01*
X514Y915D01*
X514Y913D01*
X512Y913D01*
X512Y911D01*
X510Y911D01*
X510Y909D01*
X508Y909D01*
X508Y907D01*
X506Y907D01*
X506Y905D01*
X504Y905D01*
X504Y903D01*
X502Y903D01*
X502Y901D01*
X500Y901D01*
X500Y899D01*
X498Y899D01*
X498Y897D01*
X496Y897D01*
X496Y895D01*
X494Y895D01*
X494Y893D01*
X492Y893D01*
X492Y891D01*
X490Y891D01*
X490Y889D01*
X488Y889D01*
X488Y887D01*
X486Y887D01*
X486Y885D01*
X484Y885D01*
X484Y883D01*
X482Y883D01*
X482Y881D01*
X480Y881D01*
X480Y879D01*
X478Y879D01*
X478Y877D01*
X476Y877D01*
X476Y875D01*
X474Y875D01*
X474Y873D01*
X472Y873D01*
X472Y871D01*
X470Y871D01*
X470Y869D01*
X468Y869D01*
X468Y867D01*
X466Y867D01*
X466Y865D01*
X464Y865D01*
X464Y863D01*
X462Y863D01*
X462Y861D01*
X460Y861D01*
X460Y859D01*
X458Y859D01*
X458Y857D01*
X456Y857D01*
X456Y855D01*
X454Y855D01*
X454Y853D01*
X452Y853D01*
X452Y851D01*
X450Y851D01*
X450Y849D01*
X448Y849D01*
X448Y847D01*
X446Y847D01*
X446Y845D01*
X444Y845D01*
X444Y843D01*
X442Y843D01*
X442Y841D01*
X440Y841D01*
X440Y839D01*
X438Y839D01*
X438Y837D01*
X436Y837D01*
X436Y835D01*
X434Y835D01*
X434Y833D01*
X432Y833D01*
X432Y831D01*
X430Y831D01*
X430Y829D01*
X428Y829D01*
X428Y827D01*
X426Y827D01*
X426Y825D01*
X424Y825D01*
X424Y823D01*
X422Y823D01*
X422Y821D01*
X420Y821D01*
X420Y819D01*
X418Y819D01*
X418Y817D01*
X416Y817D01*
X416Y815D01*
X414Y815D01*
X414Y813D01*
X412Y813D01*
X412Y811D01*
X410Y811D01*
X410Y809D01*
X408Y809D01*
X408Y807D01*
X406Y807D01*
X406Y805D01*
X404Y805D01*
X404Y803D01*
X402Y803D01*
X402Y801D01*
X400Y801D01*
X400Y799D01*
X398Y799D01*
X398Y797D01*
X396Y797D01*
X396Y795D01*
X394Y795D01*
X394Y793D01*
X392Y793D01*
X392Y791D01*
X390Y791D01*
X390Y789D01*
X388Y789D01*
X388Y787D01*
X386Y787D01*
X386Y785D01*
X384Y785D01*
X384Y783D01*
X382Y783D01*
X382Y781D01*
X380Y781D01*
X380Y779D01*
X378Y779D01*
X378Y777D01*
X376Y777D01*
X376Y775D01*
X374Y775D01*
X374Y773D01*
X372Y773D01*
X372Y771D01*
X370Y771D01*
X370Y769D01*
X368Y769D01*
X368Y767D01*
X366Y767D01*
X366Y765D01*
X364Y765D01*
X364Y763D01*
X362Y763D01*
X362Y761D01*
X360Y761D01*
X360Y759D01*
X358Y759D01*
X358Y757D01*
X356Y757D01*
X356Y755D01*
X354Y755D01*
X354Y753D01*
X352Y753D01*
X352Y751D01*
X350Y751D01*
X350Y749D01*
X348Y749D01*
X348Y715D01*
X346Y715D01*
X346Y707D01*
X344Y707D01*
X344Y703D01*
X342Y703D01*
X342Y699D01*
X340Y699D01*
X340Y697D01*
X338Y697D01*
X338Y693D01*
X336Y693D01*
X336Y691D01*
X334Y691D01*
X334Y689D01*
X332Y689D01*
X332Y687D01*
X330Y687D01*
X330Y685D01*
X326Y685D01*
X326Y683D01*
X324Y683D01*
X324Y663D01*
X328Y663D01*
X328Y661D01*
X330Y661D01*
X330Y659D01*
X332Y659D01*
X332Y657D01*
X334Y657D01*
X334Y655D01*
X336Y655D01*
X336Y653D01*
X338Y653D01*
X338Y651D01*
X340Y651D01*
X340Y647D01*
X342Y647D01*
X342Y643D01*
X344Y643D01*
X344Y639D01*
X346Y639D01*
X346Y631D01*
X348Y631D01*
X348Y615D01*
X346Y615D01*
X346Y607D01*
X344Y607D01*
X344Y603D01*
X342Y603D01*
X342Y599D01*
X340Y599D01*
X340Y597D01*
X338Y597D01*
X338Y593D01*
X336Y593D01*
X336Y591D01*
X334Y591D01*
X334Y589D01*
X332Y589D01*
X332Y587D01*
X330Y587D01*
X330Y585D01*
X326Y585D01*
X326Y583D01*
X324Y583D01*
X324Y563D01*
X328Y563D01*
X328Y561D01*
X330Y561D01*
X330Y559D01*
X332Y559D01*
X332Y557D01*
X334Y557D01*
X334Y555D01*
X336Y555D01*
X336Y553D01*
X338Y553D01*
X338Y551D01*
X340Y551D01*
X340Y547D01*
X342Y547D01*
X342Y543D01*
X344Y543D01*
X344Y539D01*
X346Y539D01*
X346Y531D01*
X348Y531D01*
X348Y497D01*
X350Y497D01*
X350Y495D01*
X352Y495D01*
X352Y493D01*
X354Y493D01*
X354Y491D01*
X356Y491D01*
X356Y489D01*
X358Y489D01*
X358Y487D01*
X360Y487D01*
X360Y485D01*
X362Y485D01*
X362Y483D01*
X364Y483D01*
X364Y481D01*
X366Y481D01*
X366Y479D01*
X368Y479D01*
X368Y477D01*
X370Y477D01*
X370Y475D01*
X372Y475D01*
X372Y473D01*
X374Y473D01*
X374Y471D01*
X376Y471D01*
X376Y469D01*
X378Y469D01*
X378Y467D01*
X380Y467D01*
X380Y465D01*
X382Y465D01*
X382Y463D01*
X384Y463D01*
X384Y461D01*
X386Y461D01*
X386Y459D01*
X388Y459D01*
X388Y457D01*
X390Y457D01*
X390Y455D01*
X392Y455D01*
X392Y453D01*
X394Y453D01*
X394Y451D01*
X396Y451D01*
X396Y449D01*
X398Y449D01*
X398Y447D01*
X400Y447D01*
X400Y445D01*
X402Y445D01*
X402Y443D01*
X404Y443D01*
X404Y441D01*
X406Y441D01*
X406Y439D01*
X408Y439D01*
X408Y437D01*
X410Y437D01*
X410Y435D01*
X412Y435D01*
X412Y433D01*
X414Y433D01*
X414Y431D01*
X416Y431D01*
X416Y429D01*
X418Y429D01*
X418Y427D01*
X420Y427D01*
X420Y425D01*
X422Y425D01*
X422Y423D01*
X424Y423D01*
X424Y421D01*
X426Y421D01*
X426Y419D01*
X428Y419D01*
X428Y417D01*
X430Y417D01*
X430Y415D01*
X432Y415D01*
X432Y413D01*
X456Y413D01*
X456Y411D01*
X462Y411D01*
X462Y409D01*
X466Y409D01*
X466Y407D01*
X470Y407D01*
X470Y405D01*
X472Y405D01*
X472Y403D01*
X474Y403D01*
X474Y399D01*
X476Y399D01*
X476Y395D01*
X478Y395D01*
X478Y391D01*
X480Y391D01*
X480Y377D01*
X478Y377D01*
X478Y371D01*
X476Y371D01*
X476Y367D01*
X474Y367D01*
X474Y365D01*
X472Y365D01*
X472Y343D01*
X474Y343D01*
X474Y339D01*
X476Y339D01*
X476Y337D01*
X478Y337D01*
X478Y331D01*
X480Y331D01*
X480Y301D01*
X554Y301D01*
X554Y321D01*
X552Y321D01*
X552Y343D01*
X548Y343D01*
X548Y345D01*
X538Y345D01*
X538Y347D01*
X536Y347D01*
X536Y349D01*
X532Y349D01*
X532Y351D01*
X530Y351D01*
X530Y353D01*
X528Y353D01*
X528Y355D01*
X526Y355D01*
X526Y359D01*
X524Y359D01*
X524Y361D01*
X522Y361D01*
X522Y371D01*
X520Y371D01*
X520Y377D01*
X522Y377D01*
X522Y665D01*
X524Y665D01*
X524Y669D01*
X526Y669D01*
X526Y673D01*
X528Y673D01*
X528Y675D01*
X530Y675D01*
X530Y677D01*
X532Y677D01*
X532Y679D01*
X534Y679D01*
X534Y681D01*
X536Y681D01*
X536Y683D01*
X538Y683D01*
X538Y685D01*
X540Y685D01*
X540Y687D01*
X542Y687D01*
X542Y689D01*
X544Y689D01*
X544Y691D01*
X546Y691D01*
X546Y693D01*
X548Y693D01*
X548Y695D01*
X550Y695D01*
X550Y697D01*
X552Y697D01*
X552Y699D01*
X554Y699D01*
X554Y721D01*
X552Y721D01*
X552Y727D01*
X554Y727D01*
X554Y737D01*
X556Y737D01*
X556Y743D01*
X558Y743D01*
X558Y747D01*
X560Y747D01*
X560Y749D01*
X562Y749D01*
X562Y753D01*
X564Y753D01*
X564Y755D01*
X566Y755D01*
X566Y757D01*
X568Y757D01*
X568Y759D01*
X570Y759D01*
X570Y761D01*
X574Y761D01*
X574Y763D01*
X576Y763D01*
X576Y783D01*
X574Y783D01*
X574Y785D01*
X572Y785D01*
X572Y787D01*
X568Y787D01*
X568Y789D01*
X566Y789D01*
X566Y791D01*
X564Y791D01*
X564Y795D01*
X562Y795D01*
X562Y797D01*
X560Y797D01*
X560Y801D01*
X558Y801D01*
X558Y805D01*
X556Y805D01*
X556Y811D01*
X554Y811D01*
X554Y821D01*
X552Y821D01*
X552Y827D01*
X554Y827D01*
X554Y837D01*
X556Y837D01*
X556Y843D01*
X558Y843D01*
X558Y847D01*
X560Y847D01*
X560Y849D01*
X562Y849D01*
X562Y853D01*
X564Y853D01*
X564Y855D01*
X566Y855D01*
X566Y857D01*
X568Y857D01*
X568Y859D01*
X570Y859D01*
X570Y861D01*
X574Y861D01*
X574Y863D01*
X576Y863D01*
X576Y883D01*
X574Y883D01*
X574Y885D01*
X572Y885D01*
X572Y887D01*
X568Y887D01*
X568Y889D01*
X566Y889D01*
X566Y891D01*
X564Y891D01*
X564Y895D01*
X562Y895D01*
X562Y897D01*
X560Y897D01*
X560Y901D01*
X558Y901D01*
X558Y905D01*
X556Y905D01*
X556Y911D01*
X554Y911D01*
X554Y921D01*
X552Y921D01*
X552Y927D01*
X554Y927D01*
X554Y935D01*
X534Y935D01*
G37*
D02*
G36*
X758Y885D02*
X758Y883D01*
X756Y883D01*
X756Y881D01*
X754Y881D01*
X754Y879D01*
X752Y879D01*
X752Y877D01*
X750Y877D01*
X750Y875D01*
X748Y875D01*
X748Y873D01*
X746Y873D01*
X746Y871D01*
X744Y871D01*
X744Y869D01*
X742Y869D01*
X742Y867D01*
X740Y867D01*
X740Y865D01*
X738Y865D01*
X738Y863D01*
X736Y863D01*
X736Y861D01*
X734Y861D01*
X734Y859D01*
X732Y859D01*
X732Y857D01*
X730Y857D01*
X730Y855D01*
X728Y855D01*
X728Y853D01*
X726Y853D01*
X726Y851D01*
X724Y851D01*
X724Y849D01*
X722Y849D01*
X722Y847D01*
X720Y847D01*
X720Y845D01*
X718Y845D01*
X718Y843D01*
X716Y843D01*
X716Y841D01*
X714Y841D01*
X714Y839D01*
X712Y839D01*
X712Y837D01*
X710Y837D01*
X710Y835D01*
X708Y835D01*
X708Y833D01*
X706Y833D01*
X706Y831D01*
X704Y831D01*
X704Y829D01*
X702Y829D01*
X702Y827D01*
X700Y827D01*
X700Y825D01*
X698Y825D01*
X698Y823D01*
X696Y823D01*
X696Y821D01*
X694Y821D01*
X694Y819D01*
X692Y819D01*
X692Y817D01*
X690Y817D01*
X690Y815D01*
X688Y815D01*
X688Y813D01*
X686Y813D01*
X686Y811D01*
X682Y811D01*
X682Y809D01*
X676Y809D01*
X676Y807D01*
X644Y807D01*
X644Y803D01*
X642Y803D01*
X642Y799D01*
X640Y799D01*
X640Y797D01*
X638Y797D01*
X638Y793D01*
X636Y793D01*
X636Y791D01*
X634Y791D01*
X634Y789D01*
X632Y789D01*
X632Y787D01*
X630Y787D01*
X630Y785D01*
X626Y785D01*
X626Y783D01*
X624Y783D01*
X624Y763D01*
X628Y763D01*
X628Y761D01*
X630Y761D01*
X630Y759D01*
X632Y759D01*
X632Y757D01*
X634Y757D01*
X634Y755D01*
X636Y755D01*
X636Y753D01*
X638Y753D01*
X638Y751D01*
X640Y751D01*
X640Y747D01*
X642Y747D01*
X642Y743D01*
X644Y743D01*
X644Y739D01*
X646Y739D01*
X646Y735D01*
X666Y735D01*
X666Y737D01*
X668Y737D01*
X668Y739D01*
X670Y739D01*
X670Y741D01*
X672Y741D01*
X672Y743D01*
X674Y743D01*
X674Y745D01*
X676Y745D01*
X676Y747D01*
X678Y747D01*
X678Y749D01*
X680Y749D01*
X680Y751D01*
X682Y751D01*
X682Y753D01*
X684Y753D01*
X684Y755D01*
X686Y755D01*
X686Y757D01*
X688Y757D01*
X688Y759D01*
X690Y759D01*
X690Y761D01*
X692Y761D01*
X692Y763D01*
X694Y763D01*
X694Y765D01*
X696Y765D01*
X696Y767D01*
X698Y767D01*
X698Y769D01*
X700Y769D01*
X700Y771D01*
X702Y771D01*
X702Y773D01*
X704Y773D01*
X704Y775D01*
X706Y775D01*
X706Y777D01*
X708Y777D01*
X708Y779D01*
X710Y779D01*
X710Y781D01*
X712Y781D01*
X712Y783D01*
X714Y783D01*
X714Y785D01*
X716Y785D01*
X716Y787D01*
X718Y787D01*
X718Y789D01*
X720Y789D01*
X720Y791D01*
X722Y791D01*
X722Y793D01*
X724Y793D01*
X724Y795D01*
X726Y795D01*
X726Y797D01*
X728Y797D01*
X728Y799D01*
X730Y799D01*
X730Y801D01*
X732Y801D01*
X732Y803D01*
X734Y803D01*
X734Y805D01*
X736Y805D01*
X736Y807D01*
X738Y807D01*
X738Y809D01*
X740Y809D01*
X740Y811D01*
X742Y811D01*
X742Y813D01*
X744Y813D01*
X744Y815D01*
X746Y815D01*
X746Y817D01*
X748Y817D01*
X748Y819D01*
X750Y819D01*
X750Y821D01*
X752Y821D01*
X752Y823D01*
X754Y823D01*
X754Y825D01*
X756Y825D01*
X756Y827D01*
X758Y827D01*
X758Y829D01*
X760Y829D01*
X760Y831D01*
X762Y831D01*
X762Y833D01*
X764Y833D01*
X764Y835D01*
X766Y835D01*
X766Y837D01*
X768Y837D01*
X768Y839D01*
X770Y839D01*
X770Y841D01*
X772Y841D01*
X772Y843D01*
X774Y843D01*
X774Y845D01*
X776Y845D01*
X776Y847D01*
X778Y847D01*
X778Y867D01*
X776Y867D01*
X776Y881D01*
X778Y881D01*
X778Y885D01*
X758Y885D01*
G37*
D02*
G36*
X40Y787D02*
X40Y783D01*
X74Y783D01*
X74Y785D01*
X64Y785D01*
X64Y787D01*
X40Y787D01*
G37*
D02*
G36*
X100Y787D02*
X100Y785D01*
X90Y785D01*
X90Y783D01*
X122Y783D01*
X122Y787D01*
X100Y787D01*
G37*
D02*
G36*
X40Y783D02*
X40Y781D01*
X122Y781D01*
X122Y783D01*
X40Y783D01*
G37*
D02*
G36*
X40Y783D02*
X40Y781D01*
X122Y781D01*
X122Y783D01*
X40Y783D01*
G37*
D02*
G36*
X40Y781D02*
X40Y749D01*
X86Y749D01*
X86Y747D01*
X94Y747D01*
X94Y745D01*
X100Y745D01*
X100Y743D01*
X122Y743D01*
X122Y745D01*
X120Y745D01*
X120Y753D01*
X118Y753D01*
X118Y767D01*
X120Y767D01*
X120Y775D01*
X122Y775D01*
X122Y781D01*
X40Y781D01*
G37*
D02*
G36*
X40Y749D02*
X40Y739D01*
X60Y739D01*
X60Y741D01*
X62Y741D01*
X62Y743D01*
X66Y743D01*
X66Y745D01*
X70Y745D01*
X70Y747D01*
X80Y747D01*
X80Y749D01*
X40Y749D01*
G37*
D02*
G36*
X758Y785D02*
X758Y783D01*
X756Y783D01*
X756Y781D01*
X754Y781D01*
X754Y779D01*
X752Y779D01*
X752Y777D01*
X750Y777D01*
X750Y775D01*
X748Y775D01*
X748Y773D01*
X746Y773D01*
X746Y771D01*
X744Y771D01*
X744Y769D01*
X742Y769D01*
X742Y767D01*
X740Y767D01*
X740Y765D01*
X738Y765D01*
X738Y763D01*
X736Y763D01*
X736Y761D01*
X734Y761D01*
X734Y759D01*
X732Y759D01*
X732Y757D01*
X730Y757D01*
X730Y755D01*
X728Y755D01*
X728Y753D01*
X726Y753D01*
X726Y751D01*
X724Y751D01*
X724Y749D01*
X722Y749D01*
X722Y747D01*
X720Y747D01*
X720Y745D01*
X718Y745D01*
X718Y743D01*
X716Y743D01*
X716Y741D01*
X714Y741D01*
X714Y739D01*
X712Y739D01*
X712Y737D01*
X710Y737D01*
X710Y735D01*
X708Y735D01*
X708Y733D01*
X706Y733D01*
X706Y731D01*
X704Y731D01*
X704Y729D01*
X702Y729D01*
X702Y727D01*
X700Y727D01*
X700Y725D01*
X698Y725D01*
X698Y723D01*
X696Y723D01*
X696Y721D01*
X694Y721D01*
X694Y719D01*
X692Y719D01*
X692Y717D01*
X690Y717D01*
X690Y679D01*
X710Y679D01*
X710Y681D01*
X712Y681D01*
X712Y683D01*
X714Y683D01*
X714Y685D01*
X716Y685D01*
X716Y687D01*
X718Y687D01*
X718Y689D01*
X720Y689D01*
X720Y691D01*
X722Y691D01*
X722Y693D01*
X724Y693D01*
X724Y695D01*
X726Y695D01*
X726Y697D01*
X728Y697D01*
X728Y699D01*
X730Y699D01*
X730Y701D01*
X732Y701D01*
X732Y703D01*
X734Y703D01*
X734Y705D01*
X736Y705D01*
X736Y707D01*
X738Y707D01*
X738Y709D01*
X740Y709D01*
X740Y711D01*
X742Y711D01*
X742Y713D01*
X744Y713D01*
X744Y715D01*
X746Y715D01*
X746Y717D01*
X748Y717D01*
X748Y719D01*
X750Y719D01*
X750Y721D01*
X752Y721D01*
X752Y723D01*
X754Y723D01*
X754Y725D01*
X756Y725D01*
X756Y727D01*
X758Y727D01*
X758Y729D01*
X760Y729D01*
X760Y731D01*
X762Y731D01*
X762Y733D01*
X764Y733D01*
X764Y735D01*
X766Y735D01*
X766Y737D01*
X768Y737D01*
X768Y739D01*
X770Y739D01*
X770Y741D01*
X772Y741D01*
X772Y743D01*
X774Y743D01*
X774Y745D01*
X776Y745D01*
X776Y747D01*
X778Y747D01*
X778Y767D01*
X776Y767D01*
X776Y781D01*
X778Y781D01*
X778Y785D01*
X758Y785D01*
G37*
D02*
G36*
X758Y685D02*
X758Y683D01*
X756Y683D01*
X756Y681D01*
X754Y681D01*
X754Y679D01*
X752Y679D01*
X752Y677D01*
X750Y677D01*
X750Y675D01*
X748Y675D01*
X748Y673D01*
X746Y673D01*
X746Y671D01*
X744Y671D01*
X744Y669D01*
X742Y669D01*
X742Y667D01*
X740Y667D01*
X740Y665D01*
X738Y665D01*
X738Y663D01*
X736Y663D01*
X736Y661D01*
X734Y661D01*
X734Y659D01*
X732Y659D01*
X732Y657D01*
X730Y657D01*
X730Y655D01*
X728Y655D01*
X728Y653D01*
X726Y653D01*
X726Y651D01*
X724Y651D01*
X724Y649D01*
X722Y649D01*
X722Y647D01*
X720Y647D01*
X720Y645D01*
X718Y645D01*
X718Y643D01*
X716Y643D01*
X716Y607D01*
X736Y607D01*
X736Y609D01*
X738Y609D01*
X738Y611D01*
X740Y611D01*
X740Y613D01*
X742Y613D01*
X742Y615D01*
X744Y615D01*
X744Y617D01*
X746Y617D01*
X746Y619D01*
X748Y619D01*
X748Y621D01*
X750Y621D01*
X750Y623D01*
X752Y623D01*
X752Y625D01*
X754Y625D01*
X754Y627D01*
X756Y627D01*
X756Y629D01*
X758Y629D01*
X758Y631D01*
X760Y631D01*
X760Y633D01*
X762Y633D01*
X762Y635D01*
X766Y635D01*
X766Y637D01*
X768Y637D01*
X768Y639D01*
X770Y639D01*
X770Y641D01*
X772Y641D01*
X772Y643D01*
X774Y643D01*
X774Y645D01*
X776Y645D01*
X776Y647D01*
X778Y647D01*
X778Y667D01*
X776Y667D01*
X776Y681D01*
X778Y681D01*
X778Y685D01*
X758Y685D01*
G37*
D02*
G36*
X108Y685D02*
X108Y683D01*
X106Y683D01*
X106Y681D01*
X104Y681D01*
X104Y679D01*
X100Y679D01*
X100Y677D01*
X96Y677D01*
X96Y675D01*
X88Y675D01*
X88Y673D01*
X124Y673D01*
X124Y679D01*
X126Y679D01*
X126Y683D01*
X128Y683D01*
X128Y685D01*
X108Y685D01*
G37*
D02*
G36*
X40Y681D02*
X40Y673D01*
X78Y673D01*
X78Y675D01*
X70Y675D01*
X70Y677D01*
X66Y677D01*
X66Y679D01*
X62Y679D01*
X62Y681D01*
X40Y681D01*
G37*
D02*
G36*
X40Y673D02*
X40Y671D01*
X122Y671D01*
X122Y673D01*
X40Y673D01*
G37*
D02*
G36*
X40Y673D02*
X40Y671D01*
X122Y671D01*
X122Y673D01*
X40Y673D01*
G37*
D02*
G36*
X40Y671D02*
X40Y571D01*
X92Y571D01*
X92Y569D01*
X98Y569D01*
X98Y567D01*
X102Y567D01*
X102Y565D01*
X104Y565D01*
X104Y563D01*
X106Y563D01*
X106Y561D01*
X126Y561D01*
X126Y565D01*
X124Y565D01*
X124Y571D01*
X122Y571D01*
X122Y593D01*
X124Y593D01*
X124Y599D01*
X126Y599D01*
X126Y603D01*
X128Y603D01*
X128Y607D01*
X130Y607D01*
X130Y609D01*
X132Y609D01*
X132Y611D01*
X134Y611D01*
X134Y633D01*
X132Y633D01*
X132Y635D01*
X130Y635D01*
X130Y637D01*
X128Y637D01*
X128Y641D01*
X126Y641D01*
X126Y645D01*
X124Y645D01*
X124Y651D01*
X122Y651D01*
X122Y671D01*
X40Y671D01*
G37*
D02*
G36*
X40Y571D02*
X40Y563D01*
X60Y563D01*
X60Y565D01*
X64Y565D01*
X64Y567D01*
X68Y567D01*
X68Y569D01*
X74Y569D01*
X74Y571D01*
X40Y571D01*
G37*
D02*
G36*
X40Y505D02*
X40Y503D01*
X60Y503D01*
X60Y505D01*
X40Y505D01*
G37*
D02*
G36*
X40Y503D02*
X40Y497D01*
X72Y497D01*
X72Y499D01*
X66Y499D01*
X66Y501D01*
X62Y501D01*
X62Y503D01*
X40Y503D01*
G37*
D02*
G36*
X102Y503D02*
X102Y501D01*
X98Y501D01*
X98Y499D01*
X92Y499D01*
X92Y497D01*
X120Y497D01*
X120Y499D01*
X122Y499D01*
X122Y503D01*
X102Y503D01*
G37*
D02*
G36*
X40Y497D02*
X40Y495D01*
X120Y495D01*
X120Y497D01*
X40Y497D01*
G37*
D02*
G36*
X40Y497D02*
X40Y495D01*
X120Y495D01*
X120Y497D01*
X40Y497D01*
G37*
D02*
G36*
X40Y495D02*
X40Y461D01*
X96Y461D01*
X96Y459D01*
X122Y459D01*
X122Y471D01*
X120Y471D01*
X120Y479D01*
X118Y479D01*
X118Y491D01*
X120Y491D01*
X120Y495D01*
X40Y495D01*
G37*
D02*
G36*
X40Y461D02*
X40Y457D01*
X62Y457D01*
X62Y459D01*
X70Y459D01*
X70Y461D01*
X40Y461D01*
G37*
D02*
G36*
X346Y435D02*
X346Y431D01*
X348Y431D01*
X348Y397D01*
X350Y397D01*
X350Y395D01*
X352Y395D01*
X352Y393D01*
X354Y393D01*
X354Y391D01*
X356Y391D01*
X356Y389D01*
X358Y389D01*
X358Y387D01*
X360Y387D01*
X360Y385D01*
X362Y385D01*
X362Y383D01*
X364Y383D01*
X364Y381D01*
X366Y381D01*
X366Y379D01*
X368Y379D01*
X368Y377D01*
X370Y377D01*
X370Y375D01*
X372Y375D01*
X372Y373D01*
X374Y373D01*
X374Y371D01*
X376Y371D01*
X376Y369D01*
X378Y369D01*
X378Y367D01*
X380Y367D01*
X380Y365D01*
X382Y365D01*
X382Y363D01*
X384Y363D01*
X384Y361D01*
X386Y361D01*
X386Y359D01*
X388Y359D01*
X388Y357D01*
X390Y357D01*
X390Y355D01*
X392Y355D01*
X392Y353D01*
X394Y353D01*
X394Y351D01*
X396Y351D01*
X396Y349D01*
X398Y349D01*
X398Y347D01*
X400Y347D01*
X400Y345D01*
X402Y345D01*
X402Y343D01*
X404Y343D01*
X404Y341D01*
X406Y341D01*
X406Y339D01*
X426Y339D01*
X426Y341D01*
X428Y341D01*
X428Y343D01*
X430Y343D01*
X430Y363D01*
X428Y363D01*
X428Y365D01*
X426Y365D01*
X426Y369D01*
X424Y369D01*
X424Y371D01*
X422Y371D01*
X422Y381D01*
X420Y381D01*
X420Y383D01*
X418Y383D01*
X418Y385D01*
X414Y385D01*
X414Y387D01*
X412Y387D01*
X412Y389D01*
X410Y389D01*
X410Y391D01*
X408Y391D01*
X408Y393D01*
X406Y393D01*
X406Y395D01*
X404Y395D01*
X404Y397D01*
X402Y397D01*
X402Y399D01*
X400Y399D01*
X400Y401D01*
X398Y401D01*
X398Y403D01*
X396Y403D01*
X396Y405D01*
X394Y405D01*
X394Y407D01*
X392Y407D01*
X392Y409D01*
X390Y409D01*
X390Y411D01*
X388Y411D01*
X388Y413D01*
X386Y413D01*
X386Y415D01*
X384Y415D01*
X384Y417D01*
X382Y417D01*
X382Y419D01*
X380Y419D01*
X380Y421D01*
X378Y421D01*
X378Y423D01*
X376Y423D01*
X376Y425D01*
X374Y425D01*
X374Y427D01*
X372Y427D01*
X372Y429D01*
X370Y429D01*
X370Y431D01*
X368Y431D01*
X368Y433D01*
X366Y433D01*
X366Y435D01*
X346Y435D01*
G37*
D02*
G36*
X178Y441D02*
X178Y439D01*
X170Y439D01*
X170Y437D01*
X144Y437D01*
X144Y421D01*
X146Y421D01*
X146Y417D01*
X148Y417D01*
X148Y411D01*
X150Y411D01*
X150Y401D01*
X152Y401D01*
X152Y383D01*
X150Y383D01*
X150Y373D01*
X148Y373D01*
X148Y367D01*
X146Y367D01*
X146Y363D01*
X144Y363D01*
X144Y359D01*
X142Y359D01*
X142Y355D01*
X140Y355D01*
X140Y353D01*
X138Y353D01*
X138Y349D01*
X136Y349D01*
X136Y347D01*
X134Y347D01*
X134Y345D01*
X132Y345D01*
X132Y343D01*
X130Y343D01*
X130Y341D01*
X128Y341D01*
X128Y339D01*
X126Y339D01*
X126Y337D01*
X124Y337D01*
X124Y335D01*
X120Y335D01*
X120Y333D01*
X116Y333D01*
X116Y331D01*
X114Y331D01*
X114Y329D01*
X108Y329D01*
X108Y327D01*
X104Y327D01*
X104Y325D01*
X94Y325D01*
X94Y323D01*
X204Y323D01*
X204Y407D01*
X202Y407D01*
X202Y441D01*
X178Y441D01*
G37*
D02*
G36*
X40Y327D02*
X40Y323D01*
X70Y323D01*
X70Y325D01*
X62Y325D01*
X62Y327D01*
X40Y327D01*
G37*
D02*
G36*
X40Y323D02*
X40Y321D01*
X204Y321D01*
X204Y323D01*
X40Y323D01*
G37*
D02*
G36*
X40Y323D02*
X40Y321D01*
X204Y321D01*
X204Y323D01*
X40Y323D01*
G37*
D02*
G36*
X40Y321D02*
X40Y273D01*
X54Y273D01*
X54Y271D01*
X62Y271D01*
X62Y269D01*
X66Y269D01*
X66Y267D01*
X70Y267D01*
X70Y265D01*
X72Y265D01*
X72Y263D01*
X76Y263D01*
X76Y261D01*
X78Y261D01*
X78Y259D01*
X80Y259D01*
X80Y257D01*
X82Y257D01*
X82Y255D01*
X84Y255D01*
X84Y251D01*
X86Y251D01*
X86Y247D01*
X88Y247D01*
X88Y245D01*
X90Y245D01*
X90Y237D01*
X92Y237D01*
X92Y213D01*
X90Y213D01*
X90Y207D01*
X88Y207D01*
X88Y203D01*
X86Y203D01*
X86Y199D01*
X84Y199D01*
X84Y197D01*
X82Y197D01*
X82Y195D01*
X80Y195D01*
X80Y193D01*
X78Y193D01*
X78Y191D01*
X76Y191D01*
X76Y189D01*
X74Y189D01*
X74Y187D01*
X72Y187D01*
X72Y185D01*
X68Y185D01*
X68Y183D01*
X64Y183D01*
X64Y181D01*
X58Y181D01*
X58Y179D01*
X40Y179D01*
X40Y95D01*
X314Y95D01*
X314Y93D01*
X320Y93D01*
X320Y91D01*
X324Y91D01*
X324Y89D01*
X328Y89D01*
X328Y87D01*
X330Y87D01*
X330Y85D01*
X332Y85D01*
X332Y83D01*
X334Y83D01*
X334Y81D01*
X336Y81D01*
X336Y79D01*
X338Y79D01*
X338Y77D01*
X340Y77D01*
X340Y75D01*
X342Y75D01*
X342Y71D01*
X344Y71D01*
X344Y67D01*
X346Y67D01*
X346Y61D01*
X348Y61D01*
X348Y41D01*
X636Y41D01*
X636Y63D01*
X634Y63D01*
X634Y65D01*
X632Y65D01*
X632Y71D01*
X630Y71D01*
X630Y79D01*
X628Y79D01*
X628Y91D01*
X626Y91D01*
X626Y93D01*
X624Y93D01*
X624Y95D01*
X622Y95D01*
X622Y97D01*
X620Y97D01*
X620Y99D01*
X618Y99D01*
X618Y101D01*
X616Y101D01*
X616Y103D01*
X614Y103D01*
X614Y105D01*
X612Y105D01*
X612Y107D01*
X610Y107D01*
X610Y109D01*
X608Y109D01*
X608Y111D01*
X606Y111D01*
X606Y113D01*
X604Y113D01*
X604Y115D01*
X602Y115D01*
X602Y117D01*
X600Y117D01*
X600Y119D01*
X598Y119D01*
X598Y121D01*
X596Y121D01*
X596Y123D01*
X594Y123D01*
X594Y125D01*
X592Y125D01*
X592Y127D01*
X278Y127D01*
X278Y129D01*
X274Y129D01*
X274Y131D01*
X272Y131D01*
X272Y133D01*
X270Y133D01*
X270Y135D01*
X268Y135D01*
X268Y137D01*
X266Y137D01*
X266Y139D01*
X264Y139D01*
X264Y141D01*
X262Y141D01*
X262Y143D01*
X260Y143D01*
X260Y145D01*
X258Y145D01*
X258Y147D01*
X256Y147D01*
X256Y149D01*
X254Y149D01*
X254Y151D01*
X252Y151D01*
X252Y153D01*
X250Y153D01*
X250Y155D01*
X248Y155D01*
X248Y157D01*
X246Y157D01*
X246Y159D01*
X244Y159D01*
X244Y161D01*
X242Y161D01*
X242Y163D01*
X240Y163D01*
X240Y165D01*
X238Y165D01*
X238Y167D01*
X236Y167D01*
X236Y169D01*
X234Y169D01*
X234Y171D01*
X232Y171D01*
X232Y173D01*
X230Y173D01*
X230Y175D01*
X228Y175D01*
X228Y177D01*
X226Y177D01*
X226Y179D01*
X224Y179D01*
X224Y181D01*
X222Y181D01*
X222Y183D01*
X220Y183D01*
X220Y185D01*
X218Y185D01*
X218Y187D01*
X216Y187D01*
X216Y189D01*
X214Y189D01*
X214Y191D01*
X212Y191D01*
X212Y193D01*
X210Y193D01*
X210Y195D01*
X208Y195D01*
X208Y197D01*
X206Y197D01*
X206Y201D01*
X204Y201D01*
X204Y321D01*
X40Y321D01*
G37*
D02*
G36*
X58Y95D02*
X58Y93D01*
X64Y93D01*
X64Y91D01*
X68Y91D01*
X68Y89D01*
X72Y89D01*
X72Y87D01*
X74Y87D01*
X74Y85D01*
X76Y85D01*
X76Y83D01*
X78Y83D01*
X78Y81D01*
X80Y81D01*
X80Y79D01*
X82Y79D01*
X82Y77D01*
X84Y77D01*
X84Y75D01*
X86Y75D01*
X86Y71D01*
X88Y71D01*
X88Y67D01*
X90Y67D01*
X90Y61D01*
X92Y61D01*
X92Y41D01*
X254Y41D01*
X254Y59D01*
X256Y59D01*
X256Y65D01*
X258Y65D01*
X258Y69D01*
X260Y69D01*
X260Y73D01*
X262Y73D01*
X262Y77D01*
X264Y77D01*
X264Y79D01*
X266Y79D01*
X266Y81D01*
X268Y81D01*
X268Y83D01*
X270Y83D01*
X270Y85D01*
X272Y85D01*
X272Y87D01*
X276Y87D01*
X276Y89D01*
X278Y89D01*
X278Y91D01*
X282Y91D01*
X282Y93D01*
X290Y93D01*
X290Y95D01*
X58Y95D01*
G37*
D02*
G36*
X758Y585D02*
X758Y583D01*
X756Y583D01*
X756Y581D01*
X754Y581D01*
X754Y579D01*
X752Y579D01*
X752Y577D01*
X750Y577D01*
X750Y575D01*
X748Y575D01*
X748Y573D01*
X746Y573D01*
X746Y571D01*
X744Y571D01*
X744Y569D01*
X742Y569D01*
X742Y567D01*
X740Y567D01*
X740Y541D01*
X742Y541D01*
X742Y447D01*
X740Y447D01*
X740Y441D01*
X738Y441D01*
X738Y437D01*
X736Y437D01*
X736Y435D01*
X734Y435D01*
X734Y433D01*
X732Y433D01*
X732Y431D01*
X730Y431D01*
X730Y429D01*
X728Y429D01*
X728Y427D01*
X726Y427D01*
X726Y425D01*
X724Y425D01*
X724Y423D01*
X722Y423D01*
X722Y421D01*
X720Y421D01*
X720Y419D01*
X718Y419D01*
X718Y417D01*
X716Y417D01*
X716Y415D01*
X714Y415D01*
X714Y413D01*
X712Y413D01*
X712Y411D01*
X710Y411D01*
X710Y409D01*
X708Y409D01*
X708Y407D01*
X706Y407D01*
X706Y405D01*
X704Y405D01*
X704Y307D01*
X702Y307D01*
X702Y303D01*
X700Y303D01*
X700Y299D01*
X698Y299D01*
X698Y297D01*
X696Y297D01*
X696Y295D01*
X694Y295D01*
X694Y293D01*
X692Y293D01*
X692Y291D01*
X690Y291D01*
X690Y289D01*
X688Y289D01*
X688Y287D01*
X686Y287D01*
X686Y285D01*
X684Y285D01*
X684Y283D01*
X682Y283D01*
X682Y281D01*
X680Y281D01*
X680Y279D01*
X678Y279D01*
X678Y277D01*
X676Y277D01*
X676Y275D01*
X674Y275D01*
X674Y273D01*
X672Y273D01*
X672Y271D01*
X670Y271D01*
X670Y269D01*
X668Y269D01*
X668Y267D01*
X666Y267D01*
X666Y265D01*
X664Y265D01*
X664Y263D01*
X662Y263D01*
X662Y261D01*
X660Y261D01*
X660Y259D01*
X658Y259D01*
X658Y257D01*
X656Y257D01*
X656Y255D01*
X654Y255D01*
X654Y253D01*
X652Y253D01*
X652Y251D01*
X650Y251D01*
X650Y249D01*
X648Y249D01*
X648Y247D01*
X644Y247D01*
X644Y245D01*
X784Y245D01*
X784Y249D01*
X782Y249D01*
X782Y253D01*
X780Y253D01*
X780Y259D01*
X778Y259D01*
X778Y267D01*
X776Y267D01*
X776Y281D01*
X778Y281D01*
X778Y289D01*
X780Y289D01*
X780Y293D01*
X782Y293D01*
X782Y297D01*
X784Y297D01*
X784Y301D01*
X786Y301D01*
X786Y303D01*
X788Y303D01*
X788Y305D01*
X790Y305D01*
X790Y309D01*
X794Y309D01*
X794Y311D01*
X796Y311D01*
X796Y313D01*
X798Y313D01*
X798Y333D01*
X796Y333D01*
X796Y335D01*
X794Y335D01*
X794Y337D01*
X792Y337D01*
X792Y339D01*
X790Y339D01*
X790Y341D01*
X788Y341D01*
X788Y343D01*
X786Y343D01*
X786Y345D01*
X784Y345D01*
X784Y349D01*
X782Y349D01*
X782Y353D01*
X780Y353D01*
X780Y359D01*
X778Y359D01*
X778Y367D01*
X776Y367D01*
X776Y381D01*
X778Y381D01*
X778Y389D01*
X780Y389D01*
X780Y393D01*
X782Y393D01*
X782Y397D01*
X784Y397D01*
X784Y401D01*
X786Y401D01*
X786Y403D01*
X788Y403D01*
X788Y405D01*
X790Y405D01*
X790Y409D01*
X794Y409D01*
X794Y411D01*
X796Y411D01*
X796Y413D01*
X798Y413D01*
X798Y433D01*
X796Y433D01*
X796Y435D01*
X794Y435D01*
X794Y437D01*
X792Y437D01*
X792Y439D01*
X790Y439D01*
X790Y441D01*
X788Y441D01*
X788Y443D01*
X786Y443D01*
X786Y445D01*
X784Y445D01*
X784Y449D01*
X782Y449D01*
X782Y453D01*
X780Y453D01*
X780Y459D01*
X778Y459D01*
X778Y467D01*
X776Y467D01*
X776Y481D01*
X778Y481D01*
X778Y489D01*
X780Y489D01*
X780Y493D01*
X782Y493D01*
X782Y497D01*
X784Y497D01*
X784Y501D01*
X786Y501D01*
X786Y503D01*
X788Y503D01*
X788Y505D01*
X790Y505D01*
X790Y509D01*
X794Y509D01*
X794Y511D01*
X796Y511D01*
X796Y513D01*
X798Y513D01*
X798Y533D01*
X796Y533D01*
X796Y535D01*
X794Y535D01*
X794Y537D01*
X792Y537D01*
X792Y539D01*
X790Y539D01*
X790Y541D01*
X788Y541D01*
X788Y543D01*
X786Y543D01*
X786Y545D01*
X784Y545D01*
X784Y549D01*
X782Y549D01*
X782Y553D01*
X780Y553D01*
X780Y559D01*
X778Y559D01*
X778Y567D01*
X776Y567D01*
X776Y581D01*
X778Y581D01*
X778Y585D01*
X758Y585D01*
G37*
D02*
G36*
X504Y269D02*
X504Y245D01*
X568Y245D01*
X568Y247D01*
X566Y247D01*
X566Y249D01*
X564Y249D01*
X564Y251D01*
X562Y251D01*
X562Y253D01*
X560Y253D01*
X560Y255D01*
X558Y255D01*
X558Y257D01*
X556Y257D01*
X556Y259D01*
X554Y259D01*
X554Y261D01*
X552Y261D01*
X552Y263D01*
X550Y263D01*
X550Y265D01*
X548Y265D01*
X548Y267D01*
X546Y267D01*
X546Y269D01*
X504Y269D01*
G37*
D02*
G36*
X504Y245D02*
X504Y243D01*
X786Y243D01*
X786Y245D01*
X504Y245D01*
G37*
D02*
G36*
X504Y245D02*
X504Y243D01*
X786Y243D01*
X786Y245D01*
X504Y245D01*
G37*
D02*
G36*
X504Y243D02*
X504Y237D01*
X502Y237D01*
X502Y233D01*
X684Y233D01*
X684Y231D01*
X690Y231D01*
X690Y229D01*
X696Y229D01*
X696Y227D01*
X700Y227D01*
X700Y225D01*
X702Y225D01*
X702Y223D01*
X706Y223D01*
X706Y221D01*
X708Y221D01*
X708Y219D01*
X710Y219D01*
X710Y217D01*
X712Y217D01*
X712Y213D01*
X714Y213D01*
X714Y211D01*
X716Y211D01*
X716Y207D01*
X718Y207D01*
X718Y203D01*
X720Y203D01*
X720Y197D01*
X722Y197D01*
X722Y183D01*
X758Y183D01*
X758Y181D01*
X766Y181D01*
X766Y179D01*
X770Y179D01*
X770Y177D01*
X774Y177D01*
X774Y175D01*
X778Y175D01*
X778Y173D01*
X780Y173D01*
X780Y171D01*
X782Y171D01*
X782Y169D01*
X784Y169D01*
X784Y167D01*
X786Y167D01*
X786Y165D01*
X788Y165D01*
X788Y163D01*
X790Y163D01*
X790Y159D01*
X792Y159D01*
X792Y155D01*
X794Y155D01*
X794Y149D01*
X796Y149D01*
X796Y141D01*
X798Y141D01*
X798Y131D01*
X796Y131D01*
X796Y123D01*
X794Y123D01*
X794Y117D01*
X792Y117D01*
X792Y113D01*
X790Y113D01*
X790Y109D01*
X788Y109D01*
X788Y107D01*
X786Y107D01*
X786Y105D01*
X784Y105D01*
X784Y103D01*
X782Y103D01*
X782Y101D01*
X780Y101D01*
X780Y99D01*
X778Y99D01*
X778Y97D01*
X774Y97D01*
X774Y95D01*
X772Y95D01*
X772Y93D01*
X766Y93D01*
X766Y91D01*
X760Y91D01*
X760Y89D01*
X722Y89D01*
X722Y75D01*
X720Y75D01*
X720Y69D01*
X718Y69D01*
X718Y65D01*
X716Y65D01*
X716Y61D01*
X714Y61D01*
X714Y41D01*
X856Y41D01*
X856Y225D01*
X814Y225D01*
X814Y227D01*
X808Y227D01*
X808Y229D01*
X804Y229D01*
X804Y231D01*
X800Y231D01*
X800Y233D01*
X796Y233D01*
X796Y235D01*
X794Y235D01*
X794Y237D01*
X792Y237D01*
X792Y239D01*
X790Y239D01*
X790Y241D01*
X788Y241D01*
X788Y243D01*
X504Y243D01*
G37*
D02*
G36*
X348Y233D02*
X348Y219D01*
X468Y219D01*
X468Y221D01*
X462Y221D01*
X462Y223D01*
X458Y223D01*
X458Y225D01*
X456Y225D01*
X456Y227D01*
X454Y227D01*
X454Y229D01*
X452Y229D01*
X452Y231D01*
X450Y231D01*
X450Y233D01*
X348Y233D01*
G37*
D02*
G36*
X500Y233D02*
X500Y231D01*
X498Y231D01*
X498Y229D01*
X496Y229D01*
X496Y227D01*
X494Y227D01*
X494Y225D01*
X492Y225D01*
X492Y223D01*
X488Y223D01*
X488Y221D01*
X484Y221D01*
X484Y219D01*
X644Y219D01*
X644Y221D01*
X646Y221D01*
X646Y223D01*
X648Y223D01*
X648Y225D01*
X652Y225D01*
X652Y227D01*
X654Y227D01*
X654Y229D01*
X660Y229D01*
X660Y231D01*
X668Y231D01*
X668Y233D01*
X500Y233D01*
G37*
D02*
G36*
X348Y219D02*
X348Y217D01*
X642Y217D01*
X642Y219D01*
X348Y219D01*
G37*
D02*
G36*
X348Y219D02*
X348Y217D01*
X642Y217D01*
X642Y219D01*
X348Y219D01*
G37*
D02*
G36*
X348Y217D02*
X348Y213D01*
X346Y213D01*
X346Y207D01*
X344Y207D01*
X344Y203D01*
X342Y203D01*
X342Y199D01*
X340Y199D01*
X340Y197D01*
X338Y197D01*
X338Y195D01*
X336Y195D01*
X336Y193D01*
X334Y193D01*
X334Y191D01*
X332Y191D01*
X332Y171D01*
X604Y171D01*
X604Y169D01*
X610Y169D01*
X610Y167D01*
X612Y167D01*
X612Y165D01*
X632Y165D01*
X632Y171D01*
X630Y171D01*
X630Y179D01*
X628Y179D01*
X628Y193D01*
X630Y193D01*
X630Y201D01*
X632Y201D01*
X632Y205D01*
X634Y205D01*
X634Y209D01*
X636Y209D01*
X636Y213D01*
X638Y213D01*
X638Y215D01*
X640Y215D01*
X640Y217D01*
X348Y217D01*
G37*
D02*
G36*
X722Y183D02*
X722Y181D01*
X742Y181D01*
X742Y183D01*
X722Y183D01*
G37*
D02*
G36*
X142Y811D02*
X185Y811D01*
X185Y781D01*
X142Y781D01*
X142Y811D01*
G37*
D02*
G36*
X114Y783D02*
X144Y783D01*
X144Y740D01*
X114Y740D01*
X114Y783D01*
G37*
D02*
G36*
X762Y159D02*
X798Y159D01*
X798Y116D01*
X762Y116D01*
X762Y159D01*
G37*
D02*
G36*
X22Y99D02*
X65Y99D01*
X65Y69D01*
X22Y69D01*
X22Y99D01*
G37*
D02*
G36*
X22Y35D02*
X65Y35D01*
X65Y7D01*
X22Y7D01*
X22Y35D01*
G37*
D02*
G36*
X0Y73D02*
X26Y73D01*
X26Y30D01*
X0Y30D01*
X0Y73D01*
G37*
D02*
G36*
X60Y73D02*
X92Y73D01*
X92Y30D01*
X60Y30D01*
X60Y73D01*
G37*
D02*
G36*
X278Y35D02*
X321Y35D01*
X321Y7D01*
X278Y7D01*
X278Y35D01*
G37*
D02*
G36*
X250Y73D02*
X282Y73D01*
X282Y30D01*
X250Y30D01*
X250Y73D01*
G37*
D02*
G36*
X316Y73D02*
X348Y73D01*
X348Y30D01*
X316Y30D01*
X316Y73D01*
G37*
D02*
G36*
X840Y498D02*
X868Y498D01*
X868Y453D01*
X840Y453D01*
X840Y498D01*
G37*
D02*
G54D22*
D02*
G04 End of Copper0*
M02*