; NON-PLATED HOLES START AT T1
; THROUGH (PLATED) HOLES START AT T100
M48
INCH
T1C0.055000
T100C0.098425
T101C0.036299
T102C0.035000
T103C0.032000
T104C0.031496
T105C0.031555
T106C0.015748
T107C0.038000
T108C0.036220
%
T1
X000825Y007105
X000825Y005334
T100
X000826Y003917
X000826Y008523
T101
X001653Y004842
X001653Y007598
T102
X000453Y002252
X003003Y006230
X003003Y003230
X003003Y007230
X006003Y009230
X006003Y005230
X006003Y004230
X003003Y008230
X003003Y004230
X006003Y007230
X003003Y005230
X003003Y009230
X006003Y008230
X003012Y000480
X003012Y002252
X006003Y003230
X006003Y006230
X000453Y000480
T103
X006753Y001855
X006753Y000855
X007503Y001355
T104
X006253Y010843
T105
X004322Y010842
T106
X004503Y003829
X005503Y003730
X004753Y002480
X004503Y003230
T107
X008253Y008730
X008253Y005730
X008253Y009730
X008253Y004730
X008253Y003730
X008253Y006730
X008253Y007730
X008253Y002730
T108
X001653Y005822
X001653Y006614
X001653Y005827
T00
M30
